<svg id="Group_244" data-name="Group 244" xmlns="http://www.w3.org/2000/svg" xmlns:xlink="http://www.w3.org/1999/xlink" width="568" height="960" viewBox="0 0 568 960">
  <defs>
    <linearGradient id="linear-gradient" y1="1" x2="1" gradientUnits="objectBoundingBox">
      <stop offset="0" stop-color="#5c6ccd"/>
      <stop offset="1" stop-color="#5753b5"/>
    </linearGradient>
    <linearGradient id="linear-gradient-2" x1="0.897" y1="0.14" x2="0.206" y2="0.877" gradientUnits="objectBoundingBox">
      <stop offset="0" stop-color="#3da33d"/>
      <stop offset="1" stop-color="#5a55aa"/>
    </linearGradient>
    <clipPath id="clip-path">
      <rect id="Rectangle_179" data-name="Rectangle 179" width="568" height="960" fill="url(#linear-gradient)"/>
    </clipPath>
    <linearGradient id="linear-gradient-3" x1="0.5" x2="0.5" y2="1" gradientUnits="objectBoundingBox">
      <stop offset="0" stop-color="#a7a7ff"/>
      <stop offset="1" stop-color="#fff" stop-opacity="0"/>
    </linearGradient>
    <linearGradient id="linear-gradient-5" x1="0.5" x2="0.5" y2="1" gradientUnits="objectBoundingBox">
      <stop offset="0" stop-color="#54d8ff"/>
      <stop offset="1" stop-color="#fff" stop-opacity="0"/>
    </linearGradient>
  </defs>
  <rect id="Rectangle_176" data-name="Rectangle 176" width="568" height="960" fill="url(#linear-gradient-2)"/>
  <g id="Group_4" data-name="Group 4" clip-path="url(#clip-path)">
    <g id="Products_Sold_Graph" data-name="Products Sold Graph" transform="translate(-389.259 284.134)" opacity="0.201">
      <path id="Filled.Graph" d="M330,764.877V546.706s219.038,143.1,394.05,152.089c189.243-8.71,222.012-69.952,369.419-152.089,125.965-68.461,251.586-87.251,372.159-82.413s225.079,78.793,367.5,86.372c251.254-30.534,379.445-184.911,396.42-249.388v544.74L330,846.259Z" transform="translate(-330 -298.733)" opacity="0.7" fill="url(#linear-gradient-3)"/>
      <path id="Line.Graph" d="M313,493.785S530.624,640.3,702.693,643.452s238.161-75.606,369.954-149.472,257.084-86.472,372.433-83.989,227.484,79.889,369.214,84,371.018-133.8,396.515-248.748" transform="translate(-311.257 -245.24)" fill="none" stroke="#a3a0fb" stroke-width="2"/>
      <g id="Mar.Ellipse" transform="translate(753.04 237.499)" fill="#fff" stroke="#a4a1fb" stroke-width="2">
        <circle cx="4.352" cy="4.352" r="4.352" stroke="none"/>
        <circle cx="4.352" cy="4.352" r="3.352" fill="none"/>
      </g>
      <g id="Feb.Ellipse" transform="translate(501.353 373.225)" fill="#fff" stroke="#a4a1fb" stroke-width="2">
        <circle cx="4.352" cy="4.352" r="4.352" stroke="none"/>
        <circle cx="4.352" cy="4.352" r="3.352" fill="none"/>
      </g>
    </g>
    <g id="Products_Sold_Graph-2" data-name="Products Sold Graph" transform="translate(-479.429 517.134)" opacity="0.201">
      <path id="Filled.Graph-2" data-name="Filled.Graph" d="M330,764.877V546.706s219.038,143.1,394.05,152.089c189.243-8.71,222.012-69.952,369.419-152.089,125.965-68.461,251.586-87.251,372.159-82.413s225.079,78.793,367.5,86.372c251.254-30.534,379.445-184.911,396.42-249.388v544.74L330,846.259Z" transform="translate(-330 -298.733)" opacity="0.7" fill="url(#linear-gradient-3)"/>
      <path id="Line.Graph-2" data-name="Line.Graph" d="M313,493.785S530.624,640.3,702.693,643.452s238.161-75.606,369.954-149.472,257.084-86.472,372.433-83.989,227.484,79.889,369.214,84,371.018-133.8,396.515-248.748" transform="translate(-311.257 -245.24)" fill="none" stroke="#a3a0fb" stroke-width="2"/>
      <g id="Mar.Ellipse-2" data-name="Mar.Ellipse" transform="translate(753.04 237.499)" fill="#fff" stroke="#a4a1fb" stroke-width="2">
        <circle cx="4.352" cy="4.352" r="4.352" stroke="none"/>
        <circle cx="4.352" cy="4.352" r="3.352" fill="none"/>
      </g>
    </g>
    <g id="Total_Views_Graph" data-name="Total Views Graph" transform="translate(-500.053 306.435)" opacity="0.201">
      <path id="Filled.Graph-3" data-name="Filled.Graph" d="M330,687.576V354.422S543.786,685.647,719.4,698.112c195.943-2.807,197.549-171.952,369.733-264.548,144.147-72.706,254.139,125.622,374.712,130.459S1667.632,428.1,1832.13,418.319c213.127,14.727,384.146,202.792,397.417,212.9V768.716L330,768.958Z" transform="translate(-328.823 -354.422)" opacity="0.7" fill="url(#linear-gradient-5)"/>
      <path id="Line.Graph-3" data-name="Line.Graph" d="M312.953,279.164S533.393,616.493,705.675,619.648s231.2-198.754,369.526-266.824,258.33,129.84,373.823,132.324S1675.091,336.462,1817,340.57s304.147,118.46,393.842,208.663" transform="translate(-312.953 -276.342)" fill="none" stroke="#54d8ff" stroke-width="2"/>
      <g id="May.Ellipse" transform="translate(1491.214 51.51)" fill="#fff" stroke="#55d8fe" stroke-width="2">
        <circle cx="4.352" cy="4.352" r="4.352" stroke="none"/>
        <circle cx="4.352" cy="4.352" r="3.352" fill="none"/>
      </g>
      <g id="Mar.Ellipse-3" data-name="Mar.Ellipse" transform="translate(810.21 50.683)" fill="#fff" stroke="#55d8fe" stroke-width="2">
        <circle cx="4.352" cy="4.352" r="4.352" stroke="none"/>
        <circle cx="4.352" cy="4.352" r="3.352" fill="none"/>
      </g>
    </g>
    <g id="Total_Views_Graph-2" data-name="Total Views Graph" transform="translate(-714.986 416.772)" opacity="0.201">
      <path id="Filled.Graph-4" data-name="Filled.Graph" d="M330,687.576V354.422S543.786,685.647,719.4,698.112c195.943-2.807,197.549-171.952,369.733-264.548,144.147-72.706,254.139,125.622,374.712,130.459S1667.632,428.1,1832.13,418.319c213.127,14.727,384.146,202.792,397.417,212.9V768.716L330,768.958Z" transform="translate(-329.533 -354.422)" opacity="0.7" fill="url(#linear-gradient-5)"/>
      <path id="Line.Graph-4" data-name="Line.Graph" d="M312.953,279.164S533.393,616.493,705.675,619.648s231.2-198.754,369.526-266.824,258.33,129.84,373.823,132.324S1675.091,336.462,1817,340.57s304.147,118.46,393.842,208.663" transform="translate(-312.953 -276.342)" fill="none" stroke="#54d8ff" stroke-width="2"/>
      <g id="Apr.Ellipse" transform="translate(1197.777 182.327)" fill="#fff" stroke="#55d8fe" stroke-width="2">
        <circle cx="4.352" cy="4.352" r="4.352" stroke="none"/>
        <circle cx="4.352" cy="4.352" r="3.352" fill="none"/>
      </g>
      <g id="Mar.Ellipse-4" data-name="Mar.Ellipse" transform="translate(751.751 63.782)" fill="#fff" stroke="#55d8fe" stroke-width="2">
        <circle cx="4.352" cy="4.352" r="4.352" stroke="none"/>
        <circle cx="4.352" cy="4.352" r="3.352" fill="none"/>
      </g>
    </g>
  </g>
</svg>
