<svg id="Group_244" data-name="Group 244" xmlns="http://www.w3.org/2000/svg" xmlns:xlink="http://www.w3.org/1999/xlink" width="1600" height="960" viewBox="0 0 1600 960">
  <defs>
    <linearGradient id="linear-gradient" y1="1" x2="1" gradientUnits="objectBoundingBox">
      <stop offset="0" stop-color="#5c6ccd"/>
      <stop offset="1" stop-color="#5753b5"/>
    </linearGradient>
    <linearGradient id="linear-gradient-2" x1="0.897" y1="0.14" x2="0.206" y2="0.877" gradientUnits="objectBoundingBox">
      <stop offset="0" stop-color="#3da33d"/>
      <stop offset="1" stop-color="#5a55aa"/>
    </linearGradient>
    <clipPath id="clip-path">
      <rect id="Rectangle_179" data-name="Rectangle 179" width="1600" height="960" fill="url(#linear-gradient)"/>
    </clipPath>
    <linearGradient id="linear-gradient-3" x1="0.5" x2="0.5" y2="1" gradientUnits="objectBoundingBox">
      <stop offset="0" stop-color="#a7a7ff"/>
      <stop offset="1" stop-color="#fff" stop-opacity="0"/>
    </linearGradient>
    <linearGradient id="linear-gradient-5" x1="0.5" x2="0.5" y2="1" gradientUnits="objectBoundingBox">
      <stop offset="0" stop-color="#54d8ff"/>
      <stop offset="1" stop-color="#fff" stop-opacity="0"/>
    </linearGradient>
  </defs>
  <rect id="Rectangle_176" data-name="Rectangle 176" width="1600" height="960" fill="url(#linear-gradient-2)"/>
  <g id="Group_4" data-name="Group 4" clip-path="url(#clip-path)">
    <g id="Products_Sold_Graph" data-name="Products Sold Graph" transform="translate(-1096.504 284.134)" opacity="0.201">
      <path id="Filled.Graph" d="M330,764.877V546.706s617.008,143.1,1110,152.089c533.079-8.71,625.387-69.952,1040.616-152.089,354.832-68.461,708.692-87.251,1048.336-82.413s634.025,78.793,1035.223,86.372c707.759-30.534,1068.859-184.911,1116.677-249.388v544.74L330,846.259Z" transform="translate(-330 -298.733)" opacity="0.7" fill="url(#linear-gradient-3)"/>
      <path id="Line.Graph" d="M313,493.785S926.024,640.3,1410.725,643.452,2081.6,567.845,2452.85,493.979s724.181-86.472,1049.108-83.989,640.8,79.889,1040.039,84S5587.118,360.185,5658.94,245.24" transform="translate(-308.089 -245.24)" fill="none" stroke="#a3a0fb" stroke-width="2"/>
      <g id="Mar.Ellipse" transform="translate(2121.24 237.499)" fill="#fff" stroke="#a4a1fb" stroke-width="2">
        <circle cx="12.259" cy="12.259" r="12.259" stroke="none"/>
        <circle cx="12.259" cy="12.259" r="11.259" fill="none"/>
      </g>
      <g id="Feb.Ellipse" transform="translate(1412.261 373.225)" fill="#fff" stroke="#a4a1fb" stroke-width="2">
        <circle cx="12.259" cy="12.259" r="12.259" stroke="none"/>
        <circle cx="12.259" cy="12.259" r="11.259" fill="none"/>
      </g>
    </g>
    <g id="Products_Sold_Graph-2" data-name="Products Sold Graph" transform="translate(-1350.504 517.134)" opacity="0.201">
      <path id="Filled.Graph-2" data-name="Filled.Graph" d="M330,764.877V546.706s617.008,143.1,1110,152.089c533.079-8.71,625.387-69.952,1040.616-152.089,354.832-68.461,708.692-87.251,1048.336-82.413s634.025,78.793,1035.223,86.372c707.759-30.534,1068.859-184.911,1116.677-249.388v544.74L330,846.259Z" transform="translate(-330 -298.733)" opacity="0.7" fill="url(#linear-gradient-3)"/>
      <path id="Line.Graph-2" data-name="Line.Graph" d="M313,493.785S926.024,640.3,1410.725,643.452,2081.6,567.845,2452.85,493.979s724.181-86.472,1049.108-83.989,640.8,79.889,1040.039,84S5587.118,360.185,5658.94,245.24" transform="translate(-308.089 -245.24)" fill="none" stroke="#a3a0fb" stroke-width="2"/>
      <g id="Mar.Ellipse-2" data-name="Mar.Ellipse" transform="translate(2121.24 237.499)" fill="#fff" stroke="#a4a1fb" stroke-width="2">
        <circle cx="12.259" cy="12.259" r="12.259" stroke="none"/>
        <circle cx="12.259" cy="12.259" r="11.259" fill="none"/>
      </g>
    </g>
    <g id="Total_Views_Graph" data-name="Total Views Graph" transform="translate(-1408.599 306.435)" opacity="0.201">
      <path id="Filled.Graph-3" data-name="Filled.Graph" d="M330,687.576V354.422S932.213,685.647,1426.9,698.112c551.953-2.807,556.477-171.952,1041.5-264.548,406.048-72.706,715.883,125.622,1055.526,130.459S4097.977,428.1,4561.353,418.319c600.358,14.727,1082.1,202.792,1119.484,212.9V768.716L330,768.958Z" transform="translate(-326.683 -354.422)" opacity="0.7" fill="url(#linear-gradient-5)"/>
      <path id="Line.Graph-3" data-name="Line.Graph" d="M312.953,279.164S933.909,616.493,1419.212,619.648,2070.469,420.894,2460.13,352.824s727.692,129.84,1053.021,132.324S4149.962,336.462,4549.693,340.57s856.752,118.46,1109.413,208.663" transform="translate(-312.953 -276.342)" fill="none" stroke="#54d8ff" stroke-width="2"/>
      <g id="May.Ellipse" transform="translate(4200.602 51.51)" fill="#fff" stroke="#55d8fe" stroke-width="2">
        <circle cx="12.259" cy="12.259" r="12.259" stroke="none"/>
        <circle cx="12.259" cy="12.259" r="11.259" fill="none"/>
      </g>
      <g id="Mar.Ellipse-3" data-name="Mar.Ellipse" transform="translate(2282.281 50.683)" fill="#fff" stroke="#55d8fe" stroke-width="2">
        <circle cx="12.259" cy="12.259" r="12.259" stroke="none"/>
        <circle cx="12.259" cy="12.259" r="11.259" fill="none"/>
      </g>
    </g>
    <g id="Total_Views_Graph-2" data-name="Total Views Graph" transform="translate(-2014.046 416.772)" opacity="0.201">
      <path id="Filled.Graph-4" data-name="Filled.Graph" d="M330,687.576V354.422S932.213,685.647,1426.9,698.112c551.953-2.807,556.477-171.952,1041.5-264.548,406.048-72.706,715.883,125.622,1055.526,130.459S4097.977,428.1,4561.353,418.319c600.358,14.727,1082.1,202.792,1119.484,212.9V768.716L330,768.958Z" transform="translate(-328.683 -354.422)" opacity="0.7" fill="url(#linear-gradient-5)"/>
      <path id="Line.Graph-4" data-name="Line.Graph" d="M312.953,279.164S933.909,616.493,1419.212,619.648,2070.469,420.894,2460.13,352.824s727.692,129.84,1053.021,132.324S4149.962,336.462,4549.693,340.57s856.752,118.46,1109.413,208.663" transform="translate(-312.953 -276.342)" fill="none" stroke="#54d8ff" stroke-width="2"/>
      <g id="Apr.Ellipse" transform="translate(3374.021 182.327)" fill="#fff" stroke="#55d8fe" stroke-width="2">
        <circle cx="12.259" cy="12.259" r="12.259" stroke="none"/>
        <circle cx="12.259" cy="12.259" r="11.259" fill="none"/>
      </g>
      <g id="Mar.Ellipse-4" data-name="Mar.Ellipse" transform="translate(2117.607 63.782)" fill="#fff" stroke="#55d8fe" stroke-width="2">
        <circle cx="12.259" cy="12.259" r="12.259" stroke="none"/>
        <circle cx="12.259" cy="12.259" r="11.259" fill="none"/>
      </g>
    </g>
  </g>
</svg>
