<svg xmlns="http://www.w3.org/2000/svg" xmlns:xlink="http://www.w3.org/1999/xlink" width="28" height="28" viewBox="0 0 28 28">
  <defs>
    <clipPath id="clip-path">
      <circle id="Ellipse_7" data-name="Ellipse 7" cx="11" cy="11" r="11" transform="translate(-0.25)" fill="#fafafa"/>
    </clipPath>
  </defs>
  <g id="Group_10639" data-name="Group 10639" transform="translate(-526 -650)">
    <circle id="Ellipse_8" data-name="Ellipse 8" cx="14" cy="14" r="14" transform="translate(526 650)" fill="#848484"/>
    <g id="Mask_Group_2" data-name="Mask Group 2" transform="translate(529.25 653)" clip-path="url(#clip-path)">
      <path id="drag-and-drop-1" d="M21.685,11.194a.823.823,0,0,0,0-.641.817.817,0,0,0-.18-.268L18.053,6.833A.832.832,0,0,0,16.876,8.01l2.033,2.033h-7.2v-7.2L13.74,4.872a.832.832,0,1,0,1.177-1.177L11.463.242a.7.7,0,0,0-.131-.088.834.834,0,0,0-.136-.09.838.838,0,0,0-.641,0,.909.909,0,0,0-.136.09.835.835,0,0,0-.132.088L6.833,3.695A.832.832,0,0,0,8.01,4.872l2.033-2.033v7.2h-7.2L4.872,8.01A.832.832,0,1,0,3.7,6.833L.245,10.285a.792.792,0,0,0-.18.268.824.824,0,0,0,0,.641.8.8,0,0,0,.18.27L3.7,14.915a.832.832,0,1,0,1.177-1.177L2.842,11.707h7.2v7.2L8.01,16.878a.832.832,0,0,0-1.177,1.177l3.451,3.451a.838.838,0,0,0,.273.18.8.8,0,0,0,.318.065.8.8,0,0,0,.316-.065.821.821,0,0,0,.273-.18l3.452-3.451a.832.832,0,0,0-1.177-1.177l-2.033,2.031v-7.2h7.2l-2.033,2.031a.832.832,0,0,0,.589,1.42.822.822,0,0,0,.588-.243l3.452-3.451a.824.824,0,0,0,.18-.27" transform="translate(0 0)" fill="#fafafa"/>
    </g>
  </g>
</svg>
