<svg xmlns="http://www.w3.org/2000/svg" width="241.005" height="37.196" viewBox="0 0 241.005 37.196">
  <path id="onebox-complete-logo-dark" d="M-6398,21.669l14.981-9.162c.02.5.02,1.076.02,1.764v8.311c0,2.16,0,3.241-.554,4.162s-1.582,1.549-3.634,2.806l-7.5,4.586c-1.38.844-2.421,1.48-3.313,1.909Zm-8.313,12.467-7.5-4.586c-2.054-1.256-3.08-1.885-3.634-2.806s-.554-2-.554-4.162V14.271c0-.688,0-1.266.018-1.764L-6403,21.669V36.044C-6403.892,35.616-6404.933,34.98-6406.313,34.136Zm171.164-16.54c0-8.575,4.724-14.14,12.249-14.14,7.49,0,12.18,5.53,12.18,14.176,0,8.609-4.69,14.174-12.18,14.174S-6235.149,26.275-6235.149,17.6Zm3.464.035c0,6.754,3.431,11.13,8.785,11.13,5.46,0,8.716-4.305,8.716-11.341,0-6.615-3.4-10.954-8.716-10.954C-6228.325,6.465-6231.685,10.875-6231.685,17.631Zm-134.959-.035c0-8.575,4.724-14.14,12.25-14.14,7.49,0,12.18,5.53,12.18,14.176,0,8.609-4.69,14.174-12.18,14.174S-6366.645,26.275-6366.645,17.6Zm3.465.035c0,6.754,3.429,11.13,8.785,11.13,5.46,0,8.715-4.305,8.715-11.341,0-6.615-3.4-10.954-8.715-10.954C-6359.82,6.465-6363.18,10.875-6363.18,17.631Zm182.036,13.229-8.086-11.515-8.12,11.515a1.368,1.368,0,0,1-1.155.6,2.082,2.082,0,0,1-1.157-.385,1.674,1.674,0,0,1-.77-1.33,1.611,1.611,0,0,1,.28-.841l8.751-11.969-7.979-10.64a1.594,1.594,0,0,1-.282-.805,1.73,1.73,0,0,1,.771-1.364,2.057,2.057,0,0,1,1.12-.385,1.268,1.268,0,0,1,1.12.594l7.456,10.186,7.034-10.151a1.382,1.382,0,0,1,1.19-.63,2.216,2.216,0,0,1,1.119.35,1.791,1.791,0,0,1,.806,1.435,1.162,1.162,0,0,1-.28.77l-7.77,10.6,8.786,12a1.238,1.238,0,0,1,.314.805,1.777,1.777,0,0,1-.8,1.4,2.213,2.213,0,0,1-1.121.351A1.533,1.533,0,0,1-6181.144,30.86Zm-133.07-1.4-9.276-15.015a79.4,79.4,0,0,1-3.955-7.421c.209,2.24.49,7.106.49,12.251V30.02c0,.944-.7,1.435-1.645,1.435-.981,0-1.68-.491-1.68-1.435V5.869a2,2,0,0,1,2.2-2.1,2.9,2.9,0,0,1,2.835,1.68l8.82,14.314c1.609,2.625,3.569,6.37,4.479,8.331-.209-2.171-.561-7.245-.561-12.285V5.206c0-.981.7-1.435,1.68-1.435s1.646.454,1.646,1.435V29.25a1.948,1.948,0,0,1-2.1,2.205C-6312.779,31.455-6313.34,30.86-6314.214,29.46Zm51.344,1.785c-2.485,0-3.535-1.084-3.535-3.745V7.76c0-2.695,1.05-3.78,3.535-3.78h8.26c5.04,0,7.946,2.414,7.946,6.615,0,3.324-1.435,5.285-4.446,6.264,3.569.736,5.39,3.046,5.39,6.826,0,4.76-3.113,7.559-8.5,7.559Zm-.28-4.059c0,.77.351,1.155,1.121,1.155h7.419c3.536,0,5.425-1.751,5.425-4.971,0-3.289-1.925-5-5.494-5h-8.471Zm0-19.18v7.49h8.364c3.01,0,4.761-1.68,4.761-4.479,0-2.73-1.646-4.13-4.831-4.13h-7.28C-6262.8,6.886-6263.15,7.3-6263.15,8.005Zm-29.33,23.239c-2.485,0-3.571-1.084-3.571-3.745V7.76c0-2.695,1.085-3.78,3.571-3.78h13.229a1.352,1.352,0,0,1,1.4,1.5,1.38,1.38,0,0,1-1.4,1.54h-12.318c-.841,0-1.19.385-1.19,1.226v7.245h11.936a1.344,1.344,0,0,1,1.364,1.5,1.372,1.372,0,0,1-1.364,1.471h-11.936v8.611c0,.8.525,1.119,1.295,1.119h12.53a1.352,1.352,0,0,1,1.4,1.5,1.4,1.4,0,0,1-1.4,1.54Zm-123.34-22.676c.528-.361,1.186-.762,2.007-1.264l7.5-4.587C-6403.505,1-6402.1.143-6400.5.143s3.006.859,5.813,2.574l7.5,4.587c.822.5,1.479.9,2.007,1.264l-15.319,9.368Z" transform="translate(6418.5 0.357)" fill="#464646" stroke="#464646" stroke-width="1"/>
</svg>
