<svg xmlns="http://www.w3.org/2000/svg" width="36" height="37.197" viewBox="0 0 36 37.197">
  <path id="_3d-box-svgrepo-com" data-name="3d-box-svgrepo-com" d="M16.688,37.45l-7.5-4.586c-2.053-1.256-3.079-1.883-3.633-2.805S5,28.057,5,25.9V17.586c0-.688,0-1.266.018-1.765L20,24.983V39.359C19.108,38.931,18.068,38.294,16.688,37.45ZM25,39.359c.892-.429,1.932-1.065,3.313-1.909l7.5-4.586c2.053-1.256,3.079-1.883,3.633-2.805S40,28.057,40,25.9V17.586c0-.688,0-1.266-.018-1.765L25,24.983ZM37.819,11.883,22.5,21.251,7.181,11.883c.528-.36,1.185-.762,2.007-1.264l7.5-4.587C19.494,4.316,20.9,3.458,22.5,3.458s3.006.858,5.813,2.575l7.5,4.587C36.634,11.121,37.291,11.523,37.819,11.883Z" transform="translate(-4.5 -2.958)" fill="#f5f4f4" stroke="#f5f4f4" stroke-width="1" fill-rule="evenodd"/>
</svg>
